<mxfile host="app.diagrams.net" modified="2023-03-24T18:10:37.992Z" agent="Mozilla/5.0 (Macintosh; Intel Mac OS X 10_15_7) AppleWebKit/537.36 (KHTML, like Gecko) Chrome/111.0.0.0 Safari/537.36" version="21.1.1" etag="kMewMOFZ6K3xcqfqCe5_" type="github">
  <diagram name="ページ1" id="HgchNoaPBW4W7dxXleXY">
    <mxGraphModel>
      <root>
        <mxCell id="0" />
        <mxCell id="1" parent="0" />
      </root>
    </mxGraphModel>
  </diagram>
</mxfile>
